<?xml version="1.0" encoding="UTF-8"?>
<svg id="Layer_1" data-name="Layer 1" xmlns="http://www.w3.org/2000/svg" viewBox="0 0 498.76 500">
  <defs>
    <style>
      .cls-1 {
        fill: #f60;
        stroke-width: 0px;
      }
    </style>
  </defs>
  <path class="cls-1" d="M122.74,486.91l-3.65,13.03h113.3l-32.39-33.01c-22.72,15.29-49.98,22.34-77.26,19.99Z"/>
  <path class="cls-1" d="M252.93,359.13c1.91,27.45-5.66,54.72-21.43,77.26l43.69,44.52c30.75-38.64,44.5-88.11,38.11-137.08l-60.37,15.3Z"/>
  <path class="cls-1" d="M24.33,418.13l-24.33,6.27v66.64c2.83,3.03,5.79,6.06,8.82,8.96h64.58l6.89-24.81c-24.63-12.06-44.38-32.2-55.96-57.06Z"/>
  <path class="cls-1" d="M202.69,199.38l-16.75,60.1c24.59,12.06,44.32,32.17,55.89,57l60.44-15.58c-18.02-45.97-53.97-82.62-99.59-101.52Z"/>
  <path class="cls-1" d="M0,0v164.58c2.48,1.45,4.62,2.55,6.2,3.31,8.27,3.79,8.96,4.82,13.78,2.55l3.31-1.86c4.27-2.76,3.72-3.86,4.76-12.89.62-14.61.48-29.24-.41-43.83-1.36-3.55.42-7.54,3.97-8.9.28-.11.56-.2.85-.27l3.86-1.45c3.38-1.75,7.54-.42,9.29,2.96.14.27.26.55.36.83,8.88,11.63,18.36,22.78,28.39,33.43,6.89,6.13,6.89,7.37,12.06,6.89l3.72-.76c4.96-1.31,4.76-2.55,8.55-10.82,4.93-13.76,9.14-27.77,12.61-41.97,0-3.81,3.07-6.9,6.87-6.91.17,0,.33,0,.5.02h4.14c3.76-.61,7.3,1.94,7.91,5.7.06.39.09.79.09,1.19,4.85,13.79,10.42,27.31,16.68,40.52,4.48,7.93,4.41,9.17,9.44,10.06l3.79.41c5.1,0,5.31-.96,11.44-7.65,9.09-11.45,17.58-23.37,25.43-35.7,1-3.67,4.79-5.84,8.46-4.84.29.08.57.17.84.29l4,1.1c3.76.58,6.34,4.1,5.76,7.86-.04.28-.1.55-.18.82.34,14.61,1.45,29.2,3.31,43.69,1.86,8.96,1.38,10.13,5.86,12.47l3.45,1.59c4.76,1.86,5.31.76,13.23-3.72,12.19-8.09,23.94-16.81,35.22-26.12,2.08-3.19,6.35-4.09,9.54-2.01.23.15.45.31.66.49l3.45,2.27c3.4,1.71,4.76,5.86,3.05,9.26-.13.25-.27.5-.43.74-4.19,14.01-7.64,28.22-10.34,42.59-1.03,9.03-1.86,9.99,1.72,13.78l2.83,2.55c3.93,3.24,4.82,2.34,13.78.55,14.01-3.87,27.82-8.48,41.35-13.78,2.96-2.4,7.3-1.94,9.69,1.01.18.23.35.46.51.71l2.55,3.24c2.7,2.68,2.72,7.04.05,9.75-.21.21-.43.41-.67.59-8.32,12.02-16,24.46-23.02,37.28-3.79,8.27-4.82,8.96-2.55,13.78l2.14,1.79c2.76,4.34,3.86,3.72,12.89,4.76,14.61.62,29.24.49,43.83-.41,3.55-1.36,7.54.42,8.9,3.97.11.28.2.56.27.85l1.45,3.86c1.75,3.38.42,7.54-2.96,9.29-.27.14-.55.26-.83.36-11.63,8.88-22.79,18.35-33.43,28.39-6.13,6.89-7.37,6.89-6.89,12.06l.76,3.72c1.24,4.96,2.55,4.76,10.82,8.55,13.71,5.09,27.67,9.46,41.83,13.09,3.81,0,6.9,3.07,6.91,6.87,0,.17,0,.33-.02.5v4.14c.61,3.76-1.94,7.3-5.7,7.91-.39.06-.79.09-1.19.09-13.79,4.85-27.32,10.42-40.52,16.68-7.93,4.48-9.17,4.41-10.06,9.44l-.41,3.79c0,5.1.96,5.31,7.65,11.44,11.45,9.09,23.36,17.58,35.7,25.43,3.67,1,5.84,4.79,4.84,8.46-.08.29-.17.57-.29.84l-1.1,4c-.58,3.76-4.1,6.34-7.86,5.76-.28-.04-.55-.1-.82-.18-14.61.34-29.2,1.44-43.69,3.31-8.96,1.79-10.13,1.31-12.47,5.86l-1.58,3.45c-1.86,4.76-.76,5.31,3.72,13.23,5.15,8.05,10.72,15.83,16.68,23.29h140.52V0H0Z"/>
  <path class="cls-1" d="M0,378.91l13.3-3.45c-1.83-27.33,5.73-54.47,21.43-76.91L.28,263.2v115.78l-.28-.07Z"/>
  <circle class="cls-1" cx="133.13" cy="367.29" r="72.78"/>
  <path class="cls-1" d="M22.47,223.09l43.69,44.52c22.73-15.3,50.02-22.36,77.33-19.99l16.75-60.1c-48.85-7.38-98.59,5.46-137.77,35.56Z"/>
</svg>